<?xml version="1.0" standalone="no"?>
<!DOCTYPE svg PUBLIC "-//W3C//DTD SVG 20010904//EN"
 "http://www.w3.org/TR/2001/REC-SVG-20010904/DTD/svg10.dtd">
<svg version="1.0" xmlns="http://www.w3.org/2000/svg"
 width="1024.000000pt" height="1024.000000pt" viewBox="0 0 1024.000000 1024.000000"
 preserveAspectRatio="xMidYMid meet">
<metadata>
Created by potrace 1.14, written by Peter Selinger 2001-2017
</metadata>
<g transform="translate(0.000000,1024.000000) scale(0.100000,-0.100000)"
fill="#000000" stroke="none">
<path d="M1210 10225 c-223 -38 -401 -107 -570 -220 -322 -215 -521 -508 -613
-900 l-22 -90 -2 -3860 c-2 -4090 -4 -3904 42 -4090 96 -389 390 -748 752
-921 115 -55 264 -103 383 -124 101 -18 253 -18 3935 -18 3368 -1 3840 1 3915
14 47 9 96 17 110 19 34 6 171 50 218 71 78 34 167 77 172 83 3 3 17 12 33 20
86 45 265 201 346 301 20 25 39 47 42 50 11 10 86 125 116 180 45 79 100 217
123 309 51 197 49 -30 49 4066 0 2406 -4 3846 -10 3890 -49 353 -225 674 -494
900 -33 28 -61 53 -63 58 -2 4 -8 7 -13 7 -5 0 -30 15 -56 34 -142 101 -351
182 -568 221 -114 20 -7708 20 -7825 0z"/>
</g>
</svg>
